<?xml version="1.0" encoding="utf-8"?>
<!-- Generator: Adobe Illustrator 16.0.3, SVG Export Plug-In . SVG Version: 6.00 Build 0)  -->
<!DOCTYPE svg PUBLIC "-//W3C//DTD SVG 1.1//EN" "http://www.w3.org/Graphics/SVG/1.1/DTD/svg11.dtd">
<svg version="1.1" id="Layer_1" xmlns="http://www.w3.org/2000/svg" xmlns:xlink="http://www.w3.org/1999/xlink" x="0px" y="0px"
	 width="16px" height="16px" viewBox="0 0 16 16" enable-background="new 0 0 16 16" xml:space="preserve">
<path fill="#6821F4" d="M6.375,7.125V4.658h1.78c0.973,0,1.542,0.457,1.542,1.237c0,0.802-0.604,1.23-1.764,1.23H6.375z
	 M6.375,10.887h1.898c1.184,0,1.81-0.48,1.81-1.377c0-0.885-0.649-1.348-1.886-1.348H6.375V10.887z"/>
<path fill="#6821F4" d="M4.002,0c-2.209,0-4,1.791-4,4v8c0,2.209,1.791,4,4,4h8c2.209,0,4-1.791,4-4V4c0-2.209-1.791-4-4-4H4.002z
	 M5.062,12V3.545h3.399c1.587,0,2.543,0.809,2.543,2.11c0,0.884-0.65,1.675-1.482,1.816v0.1c1.143,0.117,1.903,0.931,1.903,2.033
	c0,1.488-1.084,2.396-2.888,2.396H5.062z"/>
</svg>
