<svg xmlns="http://www.w3.org/2000/svg" xmlns:xlink="http://www.w3.org/1999/xlink" viewBox="0 0 65 65" fill="#fff" fill-rule="evenodd" stroke="#000" stroke-linecap="round" stroke-linejoin="round"><use xlink:href="#A" x=".5" y=".5"/><symbol id="A" overflow="visible"><path d="M63.988 31.252c-.174-10.7-6.14-21.118-15.37-26.604C41.346.12 32.16-1.1 23.886 1 11.433 4.125 1.505 15.403.243 28.257-1.325 40.397 4.815 53.023 15.308 59.25c10.276 6.444 24.253 6.183 34.3-.6 9.057-5.878 14.674-16.6 14.37-27.388zM33.77 59.207c-14.543 1.437-28.607-10.885-29-25.472C3.67 21.892 11.475 10.18 22.622 6.26c15.632-6.27 34.834 5.312 36.445 22.077 2.526 15.064-10.014 30.4-25.297 30.87zm-9.57-28.87l21.03-17.2L33.866 30.38c-3.222 0-6.444 0-9.666-.044zm5.913 3.18l9.666.044-21.03 17.243 11.364-17.287z" stroke="none" fill="#010101" fill-rule="nonzero"/></symbol></svg>